Coordinates
version=1
nRows=16
nColumns=40
inDegrees=yes

Units are S.I. units (second, meters, Newtons, ...)
If the header above contains a line with 'inDegrees', this indicates whether rotational values are in degrees (yes) or radians (no).

endheader
time	pelvis_tilt	pelvis_list	pelvis_rotation	pelvis_tx	pelvis_ty	pelvis_tz	hip_flexion_r	hip_adduction_r	hip_rotation_r	knee_angle_r	knee_angle_r_beta	ankle_angle_r	subtalar_angle_r	mtp_angle_r	hip_flexion_l	hip_adduction_l	hip_rotation_l	knee_angle_l	knee_angle_l_beta	ankle_angle_l	subtalar_angle_l	mtp_angle_l	lumbar_extension	lumbar_bending	lumbar_rotation	arm_flex_r	arm_add_r	arm_rot_r	elbow_flex_r	pro_sup_r	wrist_flex_r	wrist_dev_r	arm_flex_l	arm_add_l	arm_rot_l	elbow_flex_l	pro_sup_l	wrist_flex_l	wrist_dev_l
      7.87500000	    -15.19099114	     -6.60923324	      3.14772184	     -0.37624331	      1.14652606	      0.03787168	     65.66878079	     -4.32109893	     -2.41899638	     93.41511743	      1.63040137	     -4.59450890	     -9.09184217	      0.00000000	     74.23394640	     -5.16496783	     12.78718174	     65.55164525	      1.14409204	     -3.81829637	     -5.09639259	      0.00000000	    -42.25200948	      6.25838299	      5.91145597	     89.43412906	    -15.01048339	     41.87921097	     20.63943657	     85.61955918	      0.00000000	      0.00000000	     88.65415512	     -1.37902113	     29.86173237	     17.32601033	     86.16592362	      0.00000000	      0.00000000
      7.88333333	    -15.14944491	     -6.67803578	      3.14339868	     -0.37598546	      1.14566188	      0.03769461	     67.43915266	     -4.65246347	     -2.14066745	     96.39201466	      1.68235803	     -3.37780349	     -7.95915044	      0.00000000	     71.97682522	     -5.34506600	     12.92219764	     62.49792007	      1.09079448	     -5.08538706	     -5.63891353	      0.00000000	    -42.19877115	      6.45342918	      5.92671681	     89.44221029	    -14.94105858	     42.04818870	     20.72521003	     85.90291188	      0.00000000	      0.00000000	     88.48054348	     -1.53309150	     29.71124149	     17.42840827	     86.38722295	      0.00000000	      0.00000000
      7.89166667	    -15.07707328	     -7.11565887	      3.12928739	     -0.37563225	      1.14494918	      0.03816801	     69.18526434	     -4.63934230	     -2.23527450	     99.17030542	      1.73084835	     -2.39019076	     -7.69227751	      0.00000000	     69.85864340	     -5.74742776	     13.68512914	     59.66832170	      1.04140867	     -6.41015011	     -5.23092190	      0.00000000	    -42.20192171	      6.90757292	      6.19547853	     89.42964975	    -14.80793695	     42.02436067	     20.78247247	     85.86940373	      0.00000000	      0.00000000	     88.41992691	     -1.45679678	     28.94210486	     17.12319154	     86.35845371	      0.00000000	      0.00000000
      7.90000000	    -14.94643149	     -7.82941918	      3.13688307	     -0.37499303	      1.14441778	      0.03898728	     70.83656956	     -4.50755529	     -2.65815998	    101.73013057	      1.77552573	     -1.51350460	     -7.51658777	      0.00000000	     67.82366730	     -6.59716714	     13.75732322	     56.98699927	      0.99461077	     -7.45529837	     -5.34039684	      0.00000000	    -42.26327085	      7.57355331	      6.65946105	     89.39118030	    -14.72511658	     42.06677862	     20.85235631	     85.73375083	      0.00000000	      0.00000000	     88.19590392	     -1.60864993	     28.71242360	     17.28231222	     86.22527802	      0.00000000	      0.00000000
      7.90833333	    -14.62558455	     -7.96372220	      3.17891587	     -0.37407942	      1.14411574	      0.03876610	     72.29164696	     -4.86293599	     -2.49547331	    104.22964128	      1.81915042	     -0.04353762	     -6.43950096	      0.00000000	     65.53339632	     -6.97831824	     13.53045834	     54.57451001	      0.95250489	     -9.16654632	     -6.13066769	      0.00000000	    -42.49894399	      7.85261895	      6.76269869	     89.38706844	    -14.64488173	     42.24173954	     20.84291480	     85.95012226	      0.00000000	      0.00000000	     87.84761879	     -1.96219174	     28.87963808	     17.87888203	     86.46950305	      0.00000000	      0.00000000
      7.91666667	    -14.54949862	     -8.58445056	      3.14726856	     -0.37342869	      1.14375526	      0.03921055	     73.91667798	     -4.86380507	     -2.91644609	    106.32341922	      1.85569374	      0.65991207	     -6.36322084	      0.00000000	     63.58437031	     -7.68183476	     13.86186777	     52.35062921	      0.91369085	    -10.19898603	     -6.23236805	      0.00000000	    -42.53294165	      8.45710554	      7.21192363	     89.36102231	    -14.58132937	     42.31146353	     20.89309990	     85.99129975	      0.00000000	      0.00000000	     87.58941855	     -2.09831911	     28.71168593	     18.08292300	     86.45676081	      0.00000000	      0.00000000
      7.92500000	    -14.70707304	     -9.11556477	      3.29294965	     -0.37336643	      1.14356090	      0.03970194	     75.79150828	     -5.10789787	     -3.33433080	    108.22471522	      1.88887761	      2.11645387	     -6.45196398	      0.00000000	     61.82143055	     -8.03185559	     14.54660840	     50.01309606	      0.87289320	    -11.57246556	     -6.54267253	      0.00000000	    -42.36974092	      9.08108585	      7.42795891	     89.35216983	    -14.48867955	     42.36911386	     20.93269326	     86.03663816	      0.00000000	      0.00000000	     87.39302092	     -2.24006849	     28.49370331	     18.29184130	     86.46618138	      0.00000000	      0.00000000
      7.93333333	    -14.70800719	     -9.48051364	      3.50033925	     -0.37272576	      1.14324941	      0.03959992	     77.44425441	     -5.54672411	     -3.56161400	    109.96413184	      1.91923616	      3.54880383	     -5.78824260	      0.00000000	     60.08927144	     -8.32062345	     14.78446386	     48.16244518	      0.84059324	    -12.79816407	     -7.45046828	      0.00000000	    -42.32048643	      9.64107502	      7.46630920	     89.34639608	    -14.39921547	     42.58289495	     20.91595052	     86.03397502	      0.00000000	      0.00000000	     87.18418964	     -2.17630421	     27.01442987	     18.26782601	     86.64578079	      0.00000000	      0.00000000
      7.94166667	    -14.97767005	     -9.86531640	      3.27792562	     -0.37263210	      1.14310668	      0.04025557	     79.25479821	     -5.59737466	     -3.88664852	    111.26520696	      1.94194420	      4.78967712	     -6.00034762	      0.00000000	     58.70631287	     -8.98288479	     15.16252522	     46.52411689	      0.81199902	    -13.95854177	     -7.23024460	      0.00000000	    -42.09066490	      9.93551166	      7.84753659	     89.33737624	    -14.33173748	     42.60876887	     20.95286149	     85.89781208	      0.00000000	      0.00000000	     86.98550085	     -2.27521499	     26.91311768	     18.41967061	     86.56367618	      0.00000000	      0.00000000
      7.95000000	    -15.06228330	    -10.40169541	      3.41735272	     -0.37211676	      1.14307082	      0.04075412	     80.80739008	     -5.91499726	     -4.46924370	    112.42932535	      1.96226190	      5.83612411	     -6.09812443	      0.00000000	     57.31315008	     -9.61036541	     14.95119305	     45.07562355	      0.78671804	    -14.91064985	     -7.58329491	      0.00000000	    -41.99597804	     10.54288798	      8.08167779	     89.31472608	    -14.27304717	     42.71023598	     20.95396953	     85.98658692	      0.00000000	      0.00000000	     86.79969917	     -2.37450825	     26.77846624	     18.53227992	     86.66340459	      0.00000000	      0.00000000
      7.95833333	    -15.28643016	    -10.69733154	      3.34900012	     -0.37185308	      1.14325338	      0.04110731	     82.50072315	     -6.08605211	     -4.76484285	    113.31328694	      1.97768994	      7.24933776	     -6.36451651	      0.00000000	     56.16050332	    -10.04650904	     15.35202728	     44.06822606	      0.76913564	    -15.86024916	     -7.62339820	      0.00000000	    -41.82230801	     10.85469604	      8.29008108	     89.30341381	    -14.23772806	     42.80123693	     21.02886006	     85.92677547	      0.00000000	      0.00000000	     86.63979023	     -2.44696007	     26.57998311	     18.64803016	     86.60615792	      0.00000000	      0.00000000
      7.96666667	    -15.54093937	    -11.06563239	      3.41649158	     -0.37169344	      1.14337964	      0.04138787	     84.07970838	     -6.50539640	     -5.28080561	    113.83042639	      1.98671573	      8.14560887	     -6.58313822	      0.00000000	     55.26063219	    -10.44309196	     15.49743270	     43.36257287	      0.75681967	    -16.70701014	     -8.02219030	      0.00000000	    -41.60720665	     11.29752087	      8.45597651	     89.30376208	    -14.23093263	     42.94054291	     21.06588129	     86.00092238	      0.00000000	      0.00000000	     86.51108024	     -2.46753570	     26.27453358	     18.73155304	     86.71460825	      0.00000000	      0.00000000
      7.97500000	    -15.81976501	    -11.39649641	      3.40258196	     -0.37166054	      1.14366273	      0.04177358	     85.56024325	     -6.68556710	     -5.73464113	    113.97588549	      1.98925447	      8.71760568	     -7.41857811	      0.00000000	     54.51782635	    -10.81040608	     15.71609727	     42.99721530	      0.75044298	    -17.20448188	     -8.40131315	      0.00000000	    -41.39226191	     11.65143454	      8.67963111	     89.30934400	    -14.26704136	     43.07228407	     21.13351708	     86.05477950	      0.00000000	      0.00000000	     86.33243131	     -2.70179466	     26.83543623	     19.12350769	     86.70016137	      0.00000000	      0.00000000
      7.98333333	    -15.96024457	    -11.51460324	      3.37439466	     -0.37156562	      1.14430041	      0.04204920	     86.74593912	     -6.92605313	     -6.04553186	    113.85381594	      1.98712395	      9.36206752	     -7.82019073	      0.00000000	     53.70732883	    -11.05754117	     15.78077260	     42.94267823	      0.74949112	    -17.41204490	     -8.47628426	      0.00000000	    -41.34670056	     11.79310877	      8.77295900	     89.32298023	    -14.26475996	     43.04239175	     21.21342086	     85.94668430	      0.00000000	      0.00000000	     86.33736271	     -2.71259571	     26.80733340	     19.10399552	     86.55772647	      0.00000000	      0.00000000
      7.99166667	    -16.25017339	    -11.73997565	      3.34046536	     -0.37184764	      1.14454086	      0.04252939	     88.01919852	     -7.05676948	     -6.49054426	    113.39181669	      1.97906055	      9.75756649	     -8.53187204	      0.00000000	     53.44477844	    -11.27631667	     16.03496330	     43.49697714	      0.75916547	    -17.64908086	     -8.84844311	      0.00000000	    -41.13917581	     12.01287803	      8.91869576	     89.38801861	    -14.28912189	     43.39590972	     21.21641025	     85.68790726	      0.00000000	      0.00000000	     86.47264914	     -2.69776885	     27.35283560	     18.85111699	     86.20075860	      0.00000000	      0.00000000
      8.00000000	    -16.78205918	    -11.99917037	      3.18416263	     -0.37247177	      1.14482102	      0.04328790	     89.37344039	     -7.03926138	     -7.07590926	    112.54921594	      1.96435439	      9.89953653	     -9.90296001	      0.00000000	     53.45420535	    -11.47279388	     16.51069742	     44.10687545	      0.76981020	    -17.55371744	     -9.37615096	      0.00000000	    -40.75149251	     12.18867015	      9.11303008	     89.40753917	    -14.31221052	     43.32978051	     21.33260725	     85.97675115	      0.00000000	      0.00000000	     86.58391366	     -2.51806476	     26.62324872	     18.56183930	     86.55385288	      0.00000000	      0.00000000
